<mxfile host="app.diagrams.net" agent="Mozilla/5.0 (Windows NT 10.0; Win64; x64) AppleWebKit/537.36 (KHTML, like Gecko) Chrome/140.0.0.0 Safari/537.36" version="28.2.7">
  <diagram name="Page-1" id="ymwxbL_7wRg9WtKDLR_7">
    <mxGraphModel dx="2670" dy="2169" grid="1" gridSize="10" guides="1" tooltips="1" connect="1" arrows="1" fold="1" page="1" pageScale="1" pageWidth="850" pageHeight="1100" math="0" shadow="0">
      <root>
        <mxCell id="0" />
        <mxCell id="1" parent="0" />
        <mxCell id="J_4AB-iZqQTBYVZot05w-1" value="RabbitMQ" style="strokeWidth=2;html=1;shape=mxgraph.flowchart.direct_data;whiteSpace=wrap;" vertex="1" parent="1">
          <mxGeometry x="-230" y="103" width="180" height="120" as="geometry" />
        </mxCell>
        <mxCell id="J_4AB-iZqQTBYVZot05w-2" value="Postgres" style="shape=cylinder3;whiteSpace=wrap;html=1;boundedLbl=1;backgroundOutline=1;size=15;" vertex="1" parent="1">
          <mxGeometry x="2450" y="322" width="110" height="170" as="geometry" />
        </mxCell>
        <mxCell id="J_4AB-iZqQTBYVZot05w-3" value="MessageConsumer" style="swimlane;fontStyle=1;align=center;verticalAlign=top;childLayout=stackLayout;horizontal=1;startSize=26;horizontalStack=0;resizeParent=1;resizeParentMax=0;resizeLast=0;collapsible=1;marginBottom=0;whiteSpace=wrap;html=1;" vertex="1" parent="1">
          <mxGeometry x="150" y="110" width="280" height="120" as="geometry" />
        </mxCell>
        <mxCell id="J_4AB-iZqQTBYVZot05w-4" value="- orderProcessor: OrderProcessor" style="text;strokeColor=none;fillColor=none;align=left;verticalAlign=top;spacingLeft=4;spacingRight=4;overflow=hidden;rotatable=0;points=[[0,0.5],[1,0.5]];portConstraint=eastwest;whiteSpace=wrap;html=1;" vertex="1" parent="J_4AB-iZqQTBYVZot05w-3">
          <mxGeometry y="26" width="280" height="26" as="geometry" />
        </mxCell>
        <mxCell id="J_4AB-iZqQTBYVZot05w-5" value="" style="line;strokeWidth=1;fillColor=none;align=left;verticalAlign=middle;spacingTop=-1;spacingLeft=3;spacingRight=3;rotatable=0;labelPosition=right;points=[];portConstraint=eastwest;strokeColor=inherit;" vertex="1" parent="J_4AB-iZqQTBYVZot05w-3">
          <mxGeometry y="52" width="280" height="8" as="geometry" />
        </mxCell>
        <mxCell id="J_4AB-iZqQTBYVZot05w-6" value="&lt;div&gt;+ listenToQueue(Order&lt;span style=&quot;background-color: transparent; color: light-dark(rgb(0, 0, 0), rgb(255, 255, 255));&quot;&gt;Message&lt;/span&gt;&lt;span style=&quot;background-color: transparent; color: light-dark(rgb(0, 0, 0), rgb(255, 255, 255));&quot;&gt;): void&lt;/span&gt;&lt;/div&gt;" style="text;strokeColor=none;fillColor=none;align=left;verticalAlign=top;spacingLeft=4;spacingRight=4;overflow=hidden;rotatable=0;points=[[0,0.5],[1,0.5]];portConstraint=eastwest;whiteSpace=wrap;html=1;" vertex="1" parent="J_4AB-iZqQTBYVZot05w-3">
          <mxGeometry y="60" width="280" height="60" as="geometry" />
        </mxCell>
        <mxCell id="J_4AB-iZqQTBYVZot05w-7" value="OrderService" style="swimlane;fontStyle=1;align=center;verticalAlign=top;childLayout=stackLayout;horizontal=1;startSize=26;horizontalStack=0;resizeParent=1;resizeParentMax=0;resizeLast=0;collapsible=1;marginBottom=0;whiteSpace=wrap;html=1;" vertex="1" parent="1">
          <mxGeometry x="1770" y="-485" width="430" height="200" as="geometry" />
        </mxCell>
        <mxCell id="J_4AB-iZqQTBYVZot05w-8" value="- IRepository: repository&lt;div&gt;- ReportStrategyFactory: strategyFactory&lt;span style=&quot;background-color: transparent; color: light-dark(rgb(0, 0, 0), rgb(255, 255, 255));&quot;&gt;&amp;nbsp;&lt;/span&gt;&lt;/div&gt;" style="text;strokeColor=none;fillColor=none;align=left;verticalAlign=top;spacingLeft=4;spacingRight=4;overflow=hidden;rotatable=0;points=[[0,0.5],[1,0.5]];portConstraint=eastwest;whiteSpace=wrap;html=1;" vertex="1" parent="J_4AB-iZqQTBYVZot05w-7">
          <mxGeometry y="26" width="430" height="44" as="geometry" />
        </mxCell>
        <mxCell id="J_4AB-iZqQTBYVZot05w-9" value="" style="line;strokeWidth=1;fillColor=none;align=left;verticalAlign=middle;spacingTop=-1;spacingLeft=3;spacingRight=3;rotatable=0;labelPosition=right;points=[];portConstraint=eastwest;strokeColor=inherit;" vertex="1" parent="J_4AB-iZqQTBYVZot05w-7">
          <mxGeometry y="70" width="430" height="8" as="geometry" />
        </mxCell>
        <mxCell id="J_4AB-iZqQTBYVZot05w-10" value="&lt;div style=&quot;line-height: 180%;&quot;&gt;&lt;div&gt;&lt;span style=&quot;background-color: initial;&quot;&gt;+ getTotalOrderValue&amp;nbsp;&lt;/span&gt;&lt;span style=&quot;color: light-dark(rgb(0, 0, 0), rgb(255, 255, 255)); background-color: transparent;&quot;&gt;(Long):&amp;nbsp;&amp;nbsp;&lt;/span&gt;&lt;span style=&quot;background-color: initial;&quot;&gt;BigDecimal&lt;/span&gt;&lt;span style=&quot;background-color: initial;&quot;&gt;&lt;/span&gt;&lt;/div&gt;&lt;div&gt;&lt;span style=&quot;background-color: initial;&quot;&gt;+ getNumberOfOrdersByCustomer(Long):&amp;nbsp;&lt;/span&gt;&lt;span style=&quot;background-color: initial;&quot;&gt;Integer&lt;/span&gt;&lt;span style=&quot;background-color: initial;&quot;&gt;&amp;nbsp;&lt;/span&gt;&lt;/div&gt;&lt;div&gt;&lt;span style=&quot;background-color: initial;&quot;&gt;+&amp;nbsp;&lt;/span&gt;&lt;span style=&quot;background-color: initial;&quot;&gt;getAllOrdersByCustomer(Long):&amp;nbsp;&lt;/span&gt;&lt;span style=&quot;background-color: initial;&quot;&gt;List&amp;lt;OrderResponse&amp;gt;&lt;/span&gt;&lt;/div&gt;&lt;div&gt;&lt;span style=&quot;background-color: initial;&quot;&gt;+&amp;nbsp;&lt;/span&gt;&lt;span style=&quot;background-color: initial;&quot;&gt;generateCustomerReport(Long, String):&amp;nbsp;&lt;/span&gt;&lt;span style=&quot;background-color: initial;&quot;&gt;String&lt;/span&gt;&lt;span style=&quot;background-color: initial;&quot;&gt;&amp;nbsp;&lt;/span&gt;&lt;/div&gt;&lt;/div&gt;" style="text;strokeColor=none;fillColor=none;align=left;verticalAlign=top;spacingLeft=4;spacingRight=4;overflow=hidden;rotatable=0;points=[[0,0.5],[1,0.5]];portConstraint=eastwest;whiteSpace=wrap;html=1;" vertex="1" parent="J_4AB-iZqQTBYVZot05w-7">
          <mxGeometry y="78" width="430" height="122" as="geometry" />
        </mxCell>
        <mxCell id="J_4AB-iZqQTBYVZot05w-11" value="&lt;b style=&quot;color: light-dark(rgb(0, 0, 0), rgb(255, 255, 255)); background-color: transparent;&quot;&gt;ReportGeneratorHtml&lt;/b&gt;Impl" style="swimlane;fontStyle=1;align=center;verticalAlign=top;childLayout=stackLayout;horizontal=1;startSize=26;horizontalStack=0;resizeParent=1;resizeParentMax=0;resizeLast=0;collapsible=1;marginBottom=0;whiteSpace=wrap;html=1;" vertex="1" parent="1">
          <mxGeometry x="2890" y="-550" width="200" height="94" as="geometry" />
        </mxCell>
        <mxCell id="J_4AB-iZqQTBYVZot05w-12" value="-" style="text;strokeColor=none;fillColor=none;align=left;verticalAlign=top;spacingLeft=4;spacingRight=4;overflow=hidden;rotatable=0;points=[[0,0.5],[1,0.5]];portConstraint=eastwest;whiteSpace=wrap;html=1;" vertex="1" parent="J_4AB-iZqQTBYVZot05w-11">
          <mxGeometry y="26" width="200" height="34" as="geometry" />
        </mxCell>
        <mxCell id="J_4AB-iZqQTBYVZot05w-13" value="" style="line;strokeWidth=1;fillColor=none;align=left;verticalAlign=middle;spacingTop=-1;spacingLeft=3;spacingRight=3;rotatable=0;labelPosition=right;points=[];portConstraint=eastwest;strokeColor=inherit;" vertex="1" parent="J_4AB-iZqQTBYVZot05w-11">
          <mxGeometry y="60" width="200" height="8" as="geometry" />
        </mxCell>
        <mxCell id="J_4AB-iZqQTBYVZot05w-14" value="+&amp;nbsp;" style="text;strokeColor=none;fillColor=none;align=left;verticalAlign=top;spacingLeft=4;spacingRight=4;overflow=hidden;rotatable=0;points=[[0,0.5],[1,0.5]];portConstraint=eastwest;whiteSpace=wrap;html=1;" vertex="1" parent="J_4AB-iZqQTBYVZot05w-11">
          <mxGeometry y="68" width="200" height="26" as="geometry" />
        </mxCell>
        <mxCell id="J_4AB-iZqQTBYVZot05w-15" value="&lt;p style=&quot;margin:0px;margin-top:4px;text-align:center;&quot;&gt;&lt;i&gt;&amp;lt;&amp;lt;Interface&amp;gt;&amp;gt;&lt;/i&gt;&lt;br&gt;&lt;b&gt;I&lt;/b&gt;&lt;b style=&quot;background-color: transparent; color: light-dark(rgb(0, 0, 0), rgb(255, 255, 255));&quot;&gt;ReportGenerator&lt;/b&gt;&lt;b style=&quot;background-color: transparent; color: light-dark(rgb(0, 0, 0), rgb(255, 255, 255));&quot;&gt;Strategy&lt;/b&gt;&lt;/p&gt;&lt;hr size=&quot;1&quot; style=&quot;border-style:solid;&quot;&gt;&lt;p style=&quot;margin:0px;margin-left:4px;&quot;&gt;&lt;/p&gt;&lt;p style=&quot;margin:0px;margin-left:4px;&quot;&gt;+ generateReport(ReportInformation): String&lt;br&gt;&lt;/p&gt;" style="verticalAlign=top;align=left;overflow=fill;html=1;whiteSpace=wrap;" vertex="1" parent="1">
          <mxGeometry x="2960" y="-811" width="260" height="122" as="geometry" />
        </mxCell>
        <mxCell id="J_4AB-iZqQTBYVZot05w-16" value="&lt;span style=&quot;text-align: left;&quot;&gt;OrderMessage&lt;/span&gt;" style="swimlane;fontStyle=0;childLayout=stackLayout;horizontal=1;startSize=26;fillColor=none;horizontalStack=0;resizeParent=1;resizeParentMax=0;resizeLast=0;collapsible=1;marginBottom=0;whiteSpace=wrap;html=1;" vertex="1" parent="1">
          <mxGeometry x="200" y="345" width="140" height="120" as="geometry" />
        </mxCell>
        <mxCell id="J_4AB-iZqQTBYVZot05w-17" value="+ order_id: int&lt;div&gt;+ customer_id: int&lt;/div&gt;&lt;div&gt;+ items: [Item]&lt;/div&gt;" style="text;strokeColor=none;fillColor=none;align=left;verticalAlign=top;spacingLeft=4;spacingRight=4;overflow=hidden;rotatable=0;points=[[0,0.5],[1,0.5]];portConstraint=eastwest;whiteSpace=wrap;html=1;" vertex="1" parent="J_4AB-iZqQTBYVZot05w-16">
          <mxGeometry y="26" width="140" height="94" as="geometry" />
        </mxCell>
        <mxCell id="J_4AB-iZqQTBYVZot05w-18" value="Item" style="swimlane;fontStyle=0;childLayout=stackLayout;horizontal=1;startSize=26;fillColor=none;horizontalStack=0;resizeParent=1;resizeParentMax=0;resizeLast=0;collapsible=1;marginBottom=0;whiteSpace=wrap;html=1;" vertex="1" parent="1">
          <mxGeometry x="200" y="555" width="140" height="100" as="geometry" />
        </mxCell>
        <mxCell id="J_4AB-iZqQTBYVZot05w-19" value="+ product_name: String&lt;div&gt;+ quantity: int&lt;/div&gt;&lt;div&gt;+ price: BigDecimal&lt;/div&gt;" style="text;strokeColor=none;fillColor=none;align=left;verticalAlign=top;spacingLeft=4;spacingRight=4;overflow=hidden;rotatable=0;points=[[0,0.5],[1,0.5]];portConstraint=eastwest;whiteSpace=wrap;html=1;" vertex="1" parent="J_4AB-iZqQTBYVZot05w-18">
          <mxGeometry y="26" width="140" height="74" as="geometry" />
        </mxCell>
        <mxCell id="J_4AB-iZqQTBYVZot05w-20" value="n" style="endArrow=open;html=1;endSize=12;startArrow=diamondThin;startSize=14;startFill=1;align=left;verticalAlign=bottom;rounded=0;entryX=0.5;entryY=0;entryDx=0;entryDy=0;" edge="1" parent="1" source="J_4AB-iZqQTBYVZot05w-17" target="J_4AB-iZqQTBYVZot05w-18">
          <mxGeometry relative="1" as="geometry">
            <mxPoint x="-30" y="385" as="sourcePoint" />
            <mxPoint x="130" y="385" as="targetPoint" />
          </mxGeometry>
        </mxCell>
        <mxCell id="J_4AB-iZqQTBYVZot05w-21" value="dispatch" style="html=1;verticalAlign=bottom;endArrow=block;curved=0;rounded=0;exitX=1;exitY=0.5;exitDx=0;exitDy=0;exitPerimeter=0;entryX=-0.013;entryY=0.966;entryDx=0;entryDy=0;entryPerimeter=0;" edge="1" parent="1" source="J_4AB-iZqQTBYVZot05w-1" target="J_4AB-iZqQTBYVZot05w-4">
          <mxGeometry width="80" relative="1" as="geometry">
            <mxPoint x="50" y="165" as="sourcePoint" />
            <mxPoint x="130" y="165" as="targetPoint" />
          </mxGeometry>
        </mxCell>
        <mxCell id="J_4AB-iZqQTBYVZot05w-22" value="Use" style="endArrow=open;endSize=12;dashed=1;html=1;rounded=0;exitX=0.439;exitY=0.942;exitDx=0;exitDy=0;exitPerimeter=0;entryX=0.5;entryY=0;entryDx=0;entryDy=0;" edge="1" parent="1" source="J_4AB-iZqQTBYVZot05w-6" target="J_4AB-iZqQTBYVZot05w-16">
          <mxGeometry width="160" relative="1" as="geometry">
            <mxPoint x="290" y="275" as="sourcePoint" />
            <mxPoint x="450" y="275" as="targetPoint" />
          </mxGeometry>
        </mxCell>
        <mxCell id="J_4AB-iZqQTBYVZot05w-23" value="OrderProcessor" style="swimlane;fontStyle=1;align=center;verticalAlign=top;childLayout=stackLayout;horizontal=1;startSize=26;horizontalStack=0;resizeParent=1;resizeParentMax=0;resizeLast=0;collapsible=1;marginBottom=0;whiteSpace=wrap;html=1;" vertex="1" parent="1">
          <mxGeometry x="770" y="65" width="280" height="180" as="geometry" />
        </mxCell>
        <mxCell id="J_4AB-iZqQTBYVZot05w-24" value="- IRepository: repository&lt;div&gt;- PedidoMapper: mapper&lt;/div&gt;&lt;div&gt;- LogWriter: logger&lt;/div&gt;&lt;div&gt;-&amp;nbsp;&lt;span style=&quot;text-align: center; background-color: transparent; color: light-dark(rgb(0, 0, 0), rgb(255, 255, 255));&quot;&gt;FailedPedidosHandler: f&lt;/span&gt;&lt;span style=&quot;text-align: center; background-color: transparent; color: light-dark(rgb(0, 0, 0), rgb(255, 255, 255));&quot;&gt;ailedPedidosHandler&lt;/span&gt;&lt;/div&gt;" style="text;strokeColor=none;fillColor=none;align=left;verticalAlign=top;spacingLeft=4;spacingRight=4;overflow=hidden;rotatable=0;points=[[0,0.5],[1,0.5]];portConstraint=eastwest;whiteSpace=wrap;html=1;" vertex="1" parent="J_4AB-iZqQTBYVZot05w-23">
          <mxGeometry y="26" width="280" height="74" as="geometry" />
        </mxCell>
        <mxCell id="J_4AB-iZqQTBYVZot05w-25" value="" style="line;strokeWidth=1;fillColor=none;align=left;verticalAlign=middle;spacingTop=-1;spacingLeft=3;spacingRight=3;rotatable=0;labelPosition=right;points=[];portConstraint=eastwest;strokeColor=inherit;" vertex="1" parent="J_4AB-iZqQTBYVZot05w-23">
          <mxGeometry y="100" width="280" height="8" as="geometry" />
        </mxCell>
        <mxCell id="J_4AB-iZqQTBYVZot05w-26" value="&lt;div&gt;&lt;span style=&quot;background-color: initial;&quot;&gt;- validateOrder(OrderMessage): void&lt;/span&gt;&lt;/div&gt;&lt;div&gt;&lt;span style=&quot;background-color: initial;&quot;&gt;+ execute (&lt;/span&gt;Order&lt;span style=&quot;color: light-dark(rgb(0, 0, 0), rgb(255, 255, 255)); background-color: transparent;&quot;&gt;Message&lt;/span&gt;&lt;span style=&quot;background-color: initial;&quot;&gt;) : void&lt;/span&gt;&lt;br&gt;&lt;/div&gt;" style="text;strokeColor=none;fillColor=none;align=left;verticalAlign=top;spacingLeft=4;spacingRight=4;overflow=hidden;rotatable=0;points=[[0,0.5],[1,0.5]];portConstraint=eastwest;whiteSpace=wrap;html=1;" vertex="1" parent="J_4AB-iZqQTBYVZot05w-23">
          <mxGeometry y="108" width="280" height="72" as="geometry" />
        </mxCell>
        <mxCell id="J_4AB-iZqQTBYVZot05w-27" value="Use" style="endArrow=open;endSize=12;dashed=1;html=1;rounded=0;exitX=0.997;exitY=-0.025;exitDx=0;exitDy=0;exitPerimeter=0;entryX=0.015;entryY=0.239;entryDx=0;entryDy=0;entryPerimeter=0;" edge="1" parent="1" source="J_4AB-iZqQTBYVZot05w-6" target="J_4AB-iZqQTBYVZot05w-25">
          <mxGeometry width="160" relative="1" as="geometry">
            <mxPoint x="670" y="175" as="sourcePoint" />
            <mxPoint x="820" y="175" as="targetPoint" />
          </mxGeometry>
        </mxCell>
        <mxCell id="J_4AB-iZqQTBYVZot05w-28" value="" style="endArrow=none;html=1;rounded=0;exitX=1;exitY=0.5;exitDx=0;exitDy=0;entryX=0;entryY=0.5;entryDx=0;entryDy=0;entryPerimeter=0;" edge="1" parent="1" source="J_4AB-iZqQTBYVZot05w-32" target="J_4AB-iZqQTBYVZot05w-2">
          <mxGeometry width="50" height="50" relative="1" as="geometry">
            <mxPoint x="2227.0000000000005" y="406" as="sourcePoint" />
            <mxPoint x="2190" y="396" as="targetPoint" />
          </mxGeometry>
        </mxCell>
        <mxCell id="J_4AB-iZqQTBYVZot05w-29" value="Use" style="endArrow=open;endSize=12;dashed=1;html=1;rounded=0;exitX=1;exitY=0.5;exitDx=0;exitDy=0;entryX=0;entryY=0.5;entryDx=0;entryDy=0;" edge="1" parent="1" source="J_4AB-iZqQTBYVZot05w-23" target="J_4AB-iZqQTBYVZot05w-76">
          <mxGeometry width="160" relative="1" as="geometry">
            <mxPoint x="1070" y="251.63200000000006" as="sourcePoint" />
            <mxPoint x="1290" y="270" as="targetPoint" />
          </mxGeometry>
        </mxCell>
        <mxCell id="J_4AB-iZqQTBYVZot05w-30" value="" style="endArrow=block;dashed=1;endFill=0;endSize=12;html=1;rounded=0;exitX=0.5;exitY=0;exitDx=0;exitDy=0;entryX=0.5;entryY=1;entryDx=0;entryDy=0;" edge="1" parent="1" source="J_4AB-iZqQTBYVZot05w-31" target="J_4AB-iZqQTBYVZot05w-76">
          <mxGeometry width="160" relative="1" as="geometry">
            <mxPoint x="2030" y="266" as="sourcePoint" />
            <mxPoint x="2190" y="266" as="targetPoint" />
          </mxGeometry>
        </mxCell>
        <mxCell id="J_4AB-iZqQTBYVZot05w-31" value="RepositoryPostgresImpl" style="swimlane;fontStyle=1;align=center;verticalAlign=top;childLayout=stackLayout;horizontal=1;startSize=26;horizontalStack=0;resizeParent=1;resizeParentMax=0;resizeLast=0;collapsible=1;marginBottom=0;whiteSpace=wrap;html=1;" vertex="1" parent="1">
          <mxGeometry x="1882" y="344" width="360" height="108" as="geometry" />
        </mxCell>
        <mxCell id="J_4AB-iZqQTBYVZot05w-32" value="- OrderRepositoryJpa: orderRepositoryJpa&lt;div&gt;- PurchasedItemsRepository: p&lt;span style=&quot;background-color: initial;&quot;&gt;urchasedItemsRepository&lt;/span&gt;&lt;/div&gt;" style="text;strokeColor=none;fillColor=none;align=left;verticalAlign=top;spacingLeft=4;spacingRight=4;overflow=hidden;rotatable=0;points=[[0,0.5],[1,0.5]];portConstraint=eastwest;whiteSpace=wrap;html=1;" vertex="1" parent="J_4AB-iZqQTBYVZot05w-31">
          <mxGeometry y="26" width="360" height="74" as="geometry" />
        </mxCell>
        <mxCell id="J_4AB-iZqQTBYVZot05w-33" value="" style="line;strokeWidth=1;fillColor=none;align=left;verticalAlign=middle;spacingTop=-1;spacingLeft=3;spacingRight=3;rotatable=0;labelPosition=right;points=[];portConstraint=eastwest;strokeColor=inherit;" vertex="1" parent="J_4AB-iZqQTBYVZot05w-31">
          <mxGeometry y="100" width="360" height="8" as="geometry" />
        </mxCell>
        <mxCell id="J_4AB-iZqQTBYVZot05w-34" value="OrderEntity" style="swimlane;fontStyle=1;align=center;verticalAlign=top;childLayout=stackLayout;horizontal=1;startSize=26;horizontalStack=0;resizeParent=1;resizeParentMax=0;resizeLast=0;collapsible=1;marginBottom=0;whiteSpace=wrap;html=1;" vertex="1" parent="1">
          <mxGeometry x="690" y="599" width="200" height="88" as="geometry" />
        </mxCell>
        <mxCell id="J_4AB-iZqQTBYVZot05w-35" value="- id_pedido: Long&lt;div&gt;- valorPedido: BigDecimal&lt;/div&gt;&lt;div&gt;- id_cliente: Long&amp;nbsp;&lt;/div&gt;" style="text;strokeColor=none;fillColor=none;align=left;verticalAlign=top;spacingLeft=4;spacingRight=4;overflow=hidden;rotatable=0;points=[[0,0.5],[1,0.5]];portConstraint=eastwest;whiteSpace=wrap;html=1;" vertex="1" parent="J_4AB-iZqQTBYVZot05w-34">
          <mxGeometry y="26" width="200" height="54" as="geometry" />
        </mxCell>
        <mxCell id="J_4AB-iZqQTBYVZot05w-36" value="" style="line;strokeWidth=1;fillColor=none;align=left;verticalAlign=middle;spacingTop=-1;spacingLeft=3;spacingRight=3;rotatable=0;labelPosition=right;points=[];portConstraint=eastwest;strokeColor=inherit;" vertex="1" parent="J_4AB-iZqQTBYVZot05w-34">
          <mxGeometry y="80" width="200" height="8" as="geometry" />
        </mxCell>
        <mxCell id="J_4AB-iZqQTBYVZot05w-37" value="PurchasedItemsEntity" style="swimlane;fontStyle=1;align=center;verticalAlign=top;childLayout=stackLayout;horizontal=1;startSize=26;horizontalStack=0;resizeParent=1;resizeParentMax=0;resizeLast=0;collapsible=1;marginBottom=0;whiteSpace=wrap;html=1;" vertex="1" parent="1">
          <mxGeometry x="975" y="639" width="210" height="108" as="geometry" />
        </mxCell>
        <mxCell id="J_4AB-iZqQTBYVZot05w-38" value="- id_pedido: Long&lt;div&gt;- produto: String&lt;/div&gt;&lt;div&gt;- quantidade: int&lt;/div&gt;&lt;div&gt;- preco: BigDecimal&lt;/div&gt;" style="text;strokeColor=none;fillColor=none;align=left;verticalAlign=top;spacingLeft=4;spacingRight=4;overflow=hidden;rotatable=0;points=[[0,0.5],[1,0.5]];portConstraint=eastwest;whiteSpace=wrap;html=1;" vertex="1" parent="J_4AB-iZqQTBYVZot05w-37">
          <mxGeometry y="26" width="210" height="74" as="geometry" />
        </mxCell>
        <mxCell id="J_4AB-iZqQTBYVZot05w-39" value="" style="line;strokeWidth=1;fillColor=none;align=left;verticalAlign=middle;spacingTop=-1;spacingLeft=3;spacingRight=3;rotatable=0;labelPosition=right;points=[];portConstraint=eastwest;strokeColor=inherit;" vertex="1" parent="J_4AB-iZqQTBYVZot05w-37">
          <mxGeometry y="100" width="210" height="8" as="geometry" />
        </mxCell>
        <mxCell id="J_4AB-iZqQTBYVZot05w-40" value="OrderController" style="swimlane;fontStyle=1;align=center;verticalAlign=top;childLayout=stackLayout;horizontal=1;startSize=26;horizontalStack=0;resizeParent=1;resizeParentMax=0;resizeLast=0;collapsible=1;marginBottom=0;whiteSpace=wrap;html=1;" vertex="1" parent="1">
          <mxGeometry x="950" y="-480" width="490" height="190" as="geometry" />
        </mxCell>
        <mxCell id="J_4AB-iZqQTBYVZot05w-41" value="- OrderService: orderService" style="text;strokeColor=none;fillColor=none;align=left;verticalAlign=top;spacingLeft=4;spacingRight=4;overflow=hidden;rotatable=0;points=[[0,0.5],[1,0.5]];portConstraint=eastwest;whiteSpace=wrap;html=1;" vertex="1" parent="J_4AB-iZqQTBYVZot05w-40">
          <mxGeometry y="26" width="490" height="34" as="geometry" />
        </mxCell>
        <mxCell id="J_4AB-iZqQTBYVZot05w-42" value="" style="line;strokeWidth=1;fillColor=none;align=left;verticalAlign=middle;spacingTop=-1;spacingLeft=3;spacingRight=3;rotatable=0;labelPosition=right;points=[];portConstraint=eastwest;strokeColor=inherit;" vertex="1" parent="J_4AB-iZqQTBYVZot05w-40">
          <mxGeometry y="60" width="490" height="8" as="geometry" />
        </mxCell>
        <mxCell id="J_4AB-iZqQTBYVZot05w-43" value="&lt;div style=&quot;line-height: 180%;&quot;&gt;&lt;div&gt;&lt;span style=&quot;background-color: initial;&quot;&gt;+ getNumberOfOrdersByCustomer(Long):&amp;nbsp;&lt;/span&gt;&lt;span style=&quot;background-color: initial;&quot;&gt;ResponseEntity&amp;lt;Integer&amp;gt;&lt;/span&gt;&lt;span style=&quot;background-color: initial;&quot;&gt;&amp;nbsp;&lt;/span&gt;&lt;/div&gt;&lt;div&gt;&lt;span style=&quot;background-color: initial;&quot;&gt;+ getTotalOrderValue&lt;/span&gt;&lt;span style=&quot;background-color: transparent; color: light-dark(rgb(0, 0, 0), rgb(255, 255, 255));&quot;&gt;+ get&lt;/span&gt;&lt;span style=&quot;background-color: transparent; color: light-dark(rgb(0, 0, 0), rgb(255, 255, 255));&quot;&gt;ListaPedidosPorCliente (Long):&amp;nbsp;&amp;nbsp;&lt;/span&gt;&lt;span style=&quot;background-color: initial;&quot;&gt;ResponseEntity&amp;lt;BigDecimal&amp;gt;&lt;/span&gt;&lt;span style=&quot;background-color: initial;&quot;&gt;&amp;nbsp;&lt;/span&gt;&lt;br&gt;&lt;/div&gt;&lt;div&gt;&lt;span style=&quot;background-color: initial;&quot;&gt;+&amp;nbsp;&lt;/span&gt;&lt;span style=&quot;background-color: initial;&quot;&gt;getAllOrdersByCustomer(Long):&amp;nbsp;&lt;/span&gt;&lt;span style=&quot;background-color: initial;&quot;&gt;ResponseEntity&amp;lt;List&amp;lt;OrderResponse&amp;gt;&amp;gt;&lt;/span&gt;&lt;/div&gt;&lt;div&gt;&lt;span style=&quot;background-color: initial;&quot;&gt;+&amp;nbsp;&lt;/span&gt;&lt;span style=&quot;background-color: initial;&quot;&gt;getReport(Long, String):&amp;nbsp;&lt;/span&gt;&lt;span style=&quot;background-color: initial;&quot;&gt;ResponseEntity&amp;lt;String&amp;gt;&lt;/span&gt;&lt;span style=&quot;background-color: initial;&quot;&gt;&amp;nbsp;&lt;/span&gt;&lt;/div&gt;&lt;/div&gt;" style="text;strokeColor=none;fillColor=none;align=left;verticalAlign=top;spacingLeft=4;spacingRight=4;overflow=hidden;rotatable=0;points=[[0,0.5],[1,0.5]];portConstraint=eastwest;whiteSpace=wrap;html=1;" vertex="1" parent="J_4AB-iZqQTBYVZot05w-40">
          <mxGeometry y="68" width="490" height="122" as="geometry" />
        </mxCell>
        <mxCell id="J_4AB-iZqQTBYVZot05w-44" value="Use" style="endArrow=open;endSize=12;dashed=1;html=1;rounded=0;exitX=0.542;exitY=0.976;exitDx=0;exitDy=0;exitPerimeter=0;entryX=0.5;entryY=0;entryDx=0;entryDy=0;" edge="1" parent="1" source="J_4AB-iZqQTBYVZot05w-10" target="J_4AB-iZqQTBYVZot05w-76">
          <mxGeometry width="160" relative="1" as="geometry">
            <mxPoint x="1880" y="-63" as="sourcePoint" />
            <mxPoint x="2580" y="550" as="targetPoint" />
          </mxGeometry>
        </mxCell>
        <mxCell id="J_4AB-iZqQTBYVZot05w-45" value="OrderReponse" style="swimlane;fontStyle=0;childLayout=stackLayout;horizontal=1;startSize=26;fillColor=none;horizontalStack=0;resizeParent=1;resizeParentMax=0;resizeLast=0;collapsible=1;marginBottom=0;whiteSpace=wrap;html=1;" vertex="1" parent="1">
          <mxGeometry x="1720" y="-710" width="230" height="100" as="geometry" />
        </mxCell>
        <mxCell id="J_4AB-iZqQTBYVZot05w-46" value="&lt;div&gt;+ orderValue: BigDecimal&lt;/div&gt;&lt;div&gt;+ items: List&amp;lt;PurchasedItemsResponse&amp;gt;&lt;/div&gt;" style="text;strokeColor=none;fillColor=none;align=left;verticalAlign=top;spacingLeft=4;spacingRight=4;overflow=hidden;rotatable=0;points=[[0,0.5],[1,0.5]];portConstraint=eastwest;whiteSpace=wrap;html=1;" vertex="1" parent="J_4AB-iZqQTBYVZot05w-45">
          <mxGeometry y="26" width="230" height="74" as="geometry" />
        </mxCell>
        <mxCell id="J_4AB-iZqQTBYVZot05w-47" value="" style="endArrow=block;dashed=1;endFill=0;endSize=12;html=1;rounded=0;exitX=0.5;exitY=0;exitDx=0;exitDy=0;entryX=0.5;entryY=1;entryDx=0;entryDy=0;" edge="1" parent="1" source="J_4AB-iZqQTBYVZot05w-11" target="J_4AB-iZqQTBYVZot05w-15">
          <mxGeometry width="160" relative="1" as="geometry">
            <mxPoint x="2510" y="-169" as="sourcePoint" />
            <mxPoint x="2510" y="-259" as="targetPoint" />
          </mxGeometry>
        </mxCell>
        <mxCell id="J_4AB-iZqQTBYVZot05w-48" value="&lt;b style=&quot;color: light-dark(rgb(0, 0, 0), rgb(255, 255, 255)); background-color: transparent;&quot;&gt;ReportGenerator&lt;/b&gt;JsonImpl" style="swimlane;fontStyle=1;align=center;verticalAlign=top;childLayout=stackLayout;horizontal=1;startSize=26;horizontalStack=0;resizeParent=1;resizeParentMax=0;resizeLast=0;collapsible=1;marginBottom=0;whiteSpace=wrap;html=1;" vertex="1" parent="1">
          <mxGeometry x="3140" y="-461" width="200" height="94" as="geometry" />
        </mxCell>
        <mxCell id="J_4AB-iZqQTBYVZot05w-49" value="-" style="text;strokeColor=none;fillColor=none;align=left;verticalAlign=top;spacingLeft=4;spacingRight=4;overflow=hidden;rotatable=0;points=[[0,0.5],[1,0.5]];portConstraint=eastwest;whiteSpace=wrap;html=1;" vertex="1" parent="J_4AB-iZqQTBYVZot05w-48">
          <mxGeometry y="26" width="200" height="34" as="geometry" />
        </mxCell>
        <mxCell id="J_4AB-iZqQTBYVZot05w-50" value="" style="line;strokeWidth=1;fillColor=none;align=left;verticalAlign=middle;spacingTop=-1;spacingLeft=3;spacingRight=3;rotatable=0;labelPosition=right;points=[];portConstraint=eastwest;strokeColor=inherit;" vertex="1" parent="J_4AB-iZqQTBYVZot05w-48">
          <mxGeometry y="60" width="200" height="8" as="geometry" />
        </mxCell>
        <mxCell id="J_4AB-iZqQTBYVZot05w-51" value="+&amp;nbsp;" style="text;strokeColor=none;fillColor=none;align=left;verticalAlign=top;spacingLeft=4;spacingRight=4;overflow=hidden;rotatable=0;points=[[0,0.5],[1,0.5]];portConstraint=eastwest;whiteSpace=wrap;html=1;" vertex="1" parent="J_4AB-iZqQTBYVZot05w-48">
          <mxGeometry y="68" width="200" height="26" as="geometry" />
        </mxCell>
        <mxCell id="J_4AB-iZqQTBYVZot05w-52" value="" style="endArrow=block;dashed=1;endFill=0;endSize=12;html=1;rounded=0;exitX=0.5;exitY=0;exitDx=0;exitDy=0;entryX=0.561;entryY=1;entryDx=0;entryDy=0;entryPerimeter=0;" edge="1" parent="1" source="J_4AB-iZqQTBYVZot05w-48" target="J_4AB-iZqQTBYVZot05w-15">
          <mxGeometry width="160" relative="1" as="geometry">
            <mxPoint x="3085" y="-501" as="sourcePoint" />
            <mxPoint x="3080" y="-629" as="targetPoint" />
          </mxGeometry>
        </mxCell>
        <mxCell id="J_4AB-iZqQTBYVZot05w-53" value="Use" style="endArrow=open;endSize=12;dashed=1;html=1;rounded=0;entryX=0.007;entryY=0.047;entryDx=0;entryDy=0;exitX=1.007;exitY=0.094;exitDx=0;exitDy=0;exitPerimeter=0;entryPerimeter=0;" edge="1" parent="1" source="J_4AB-iZqQTBYVZot05w-43" target="J_4AB-iZqQTBYVZot05w-10">
          <mxGeometry width="160" relative="1" as="geometry">
            <mxPoint x="1018.7399999999998" y="-85.29599999999982" as="sourcePoint" />
            <mxPoint x="1930" y="-110" as="targetPoint" />
          </mxGeometry>
        </mxCell>
        <mxCell id="J_4AB-iZqQTBYVZot05w-54" value="&amp;lt;&amp;lt;creates&amp;gt;&amp;gt;" style="endArrow=open;html=1;rounded=0;align=center;verticalAlign=bottom;dashed=1;endFill=0;labelBackgroundColor=none;entryX=0.5;entryY=0;entryDx=0;entryDy=0;exitX=0.645;exitY=1.02;exitDx=0;exitDy=0;exitPerimeter=0;" edge="1" parent="1" source="J_4AB-iZqQTBYVZot05w-63" target="J_4AB-iZqQTBYVZot05w-37">
          <mxGeometry relative="1" as="geometry">
            <mxPoint x="800" y="199" as="sourcePoint" />
            <mxPoint x="850" y="342" as="targetPoint" />
            <Array as="points" />
          </mxGeometry>
        </mxCell>
        <mxCell id="J_4AB-iZqQTBYVZot05w-55" value="" style="resizable=0;html=1;align=center;verticalAlign=top;labelBackgroundColor=none;" connectable="0" vertex="1" parent="J_4AB-iZqQTBYVZot05w-54">
          <mxGeometry relative="1" as="geometry" />
        </mxCell>
        <mxCell id="J_4AB-iZqQTBYVZot05w-56" value="&amp;lt;&amp;lt;creates&amp;gt;&amp;gt;" style="endArrow=open;html=1;rounded=0;align=center;verticalAlign=bottom;dashed=1;endFill=0;labelBackgroundColor=none;entryX=0.5;entryY=0;entryDx=0;entryDy=0;exitX=0.321;exitY=1.035;exitDx=0;exitDy=0;exitPerimeter=0;" edge="1" parent="1" source="J_4AB-iZqQTBYVZot05w-63" target="J_4AB-iZqQTBYVZot05w-34">
          <mxGeometry relative="1" as="geometry">
            <mxPoint x="925" y="332" as="sourcePoint" />
            <mxPoint x="830" y="469" as="targetPoint" />
          </mxGeometry>
        </mxCell>
        <mxCell id="J_4AB-iZqQTBYVZot05w-57" value="" style="resizable=0;html=1;align=center;verticalAlign=top;labelBackgroundColor=none;" connectable="0" vertex="1" parent="J_4AB-iZqQTBYVZot05w-56">
          <mxGeometry relative="1" as="geometry">
            <mxPoint x="110" y="-36" as="offset" />
          </mxGeometry>
        </mxCell>
        <mxCell id="J_4AB-iZqQTBYVZot05w-58" value="&amp;lt;&amp;lt;creates&amp;gt;&amp;gt;" style="endArrow=open;html=1;rounded=0;align=center;verticalAlign=bottom;dashed=1;endFill=0;labelBackgroundColor=none;exitX=0.25;exitY=0;exitDx=0;exitDy=0;entryX=0.481;entryY=0.996;entryDx=0;entryDy=0;entryPerimeter=0;" edge="1" parent="1" source="J_4AB-iZqQTBYVZot05w-7" target="J_4AB-iZqQTBYVZot05w-46">
          <mxGeometry relative="1" as="geometry">
            <mxPoint x="1770" y="-580" as="sourcePoint" />
            <mxPoint x="1990" y="-590" as="targetPoint" />
          </mxGeometry>
        </mxCell>
        <mxCell id="J_4AB-iZqQTBYVZot05w-59" value="" style="resizable=0;html=1;align=center;verticalAlign=top;labelBackgroundColor=none;" connectable="0" vertex="1" parent="J_4AB-iZqQTBYVZot05w-58">
          <mxGeometry relative="1" as="geometry" />
        </mxCell>
        <mxCell id="J_4AB-iZqQTBYVZot05w-60" value="n" style="endArrow=open;html=1;endSize=12;startArrow=diamondThin;startSize=14;startFill=1;edgeStyle=orthogonalEdgeStyle;align=left;verticalAlign=bottom;rounded=0;entryX=1;entryY=0.5;entryDx=0;entryDy=0;exitX=0;exitY=0.5;exitDx=0;exitDy=0;" edge="1" parent="1" source="J_4AB-iZqQTBYVZot05w-38" target="J_4AB-iZqQTBYVZot05w-35">
          <mxGeometry relative="1" as="geometry">
            <mxPoint x="710" y="953.45" as="sourcePoint" />
            <mxPoint x="529.95" y="917.9199999999996" as="targetPoint" />
          </mxGeometry>
        </mxCell>
        <mxCell id="J_4AB-iZqQTBYVZot05w-61" value="OrdersMapper" style="swimlane;fontStyle=1;align=center;verticalAlign=top;childLayout=stackLayout;horizontal=1;startSize=26;horizontalStack=0;resizeParent=1;resizeParentMax=0;resizeLast=0;collapsible=1;marginBottom=0;whiteSpace=wrap;html=1;" vertex="1" parent="1">
          <mxGeometry x="790" y="355" width="260" height="106" as="geometry" />
        </mxCell>
        <mxCell id="J_4AB-iZqQTBYVZot05w-62" value="" style="line;strokeWidth=1;fillColor=none;align=left;verticalAlign=middle;spacingTop=-1;spacingLeft=3;spacingRight=3;rotatable=0;labelPosition=right;points=[];portConstraint=eastwest;strokeColor=inherit;" vertex="1" parent="J_4AB-iZqQTBYVZot05w-61">
          <mxGeometry y="26" width="260" height="8" as="geometry" />
        </mxCell>
        <mxCell id="J_4AB-iZqQTBYVZot05w-63" value="+ pedidoToEntity (OrderMessage): OrderEntity&lt;div&gt;+ itemToEntity (OrderMessage, OrderEntity&lt;span style=&quot;background-color: initial;&quot;&gt;):&amp;nbsp;&lt;/span&gt;&lt;span style=&quot;background-color: initial;&quot;&gt;List&amp;lt;&lt;/span&gt;&lt;span style=&quot;background-color: initial; text-align: center;&quot;&gt;PurchasedItemsEntity&lt;/span&gt;&lt;span style=&quot;background-color: initial;&quot;&gt;&amp;gt;&lt;/span&gt;&lt;/div&gt;" style="text;strokeColor=none;fillColor=none;align=left;verticalAlign=top;spacingLeft=4;spacingRight=4;overflow=hidden;rotatable=0;points=[[0,0.5],[1,0.5]];portConstraint=eastwest;whiteSpace=wrap;html=1;" vertex="1" parent="J_4AB-iZqQTBYVZot05w-61">
          <mxGeometry y="34" width="260" height="72" as="geometry" />
        </mxCell>
        <mxCell id="J_4AB-iZqQTBYVZot05w-64" value="Use" style="endArrow=open;endSize=12;dashed=1;html=1;rounded=0;exitX=0.53;exitY=1.022;exitDx=0;exitDy=0;exitPerimeter=0;entryX=0.5;entryY=0;entryDx=0;entryDy=0;" edge="1" parent="1" source="J_4AB-iZqQTBYVZot05w-26" target="J_4AB-iZqQTBYVZot05w-61">
          <mxGeometry width="160" relative="1" as="geometry">
            <mxPoint x="1120" y="167" as="sourcePoint" />
            <mxPoint x="1355" y="165" as="targetPoint" />
          </mxGeometry>
        </mxCell>
        <mxCell id="J_4AB-iZqQTBYVZot05w-65" value="LogWriter" style="swimlane;fontStyle=1;align=center;verticalAlign=top;childLayout=stackLayout;horizontal=1;startSize=26;horizontalStack=0;resizeParent=1;resizeParentMax=0;resizeLast=0;collapsible=1;marginBottom=0;whiteSpace=wrap;html=1;" vertex="1" parent="1">
          <mxGeometry x="1270" y="507" width="320" height="106" as="geometry" />
        </mxCell>
        <mxCell id="J_4AB-iZqQTBYVZot05w-66" value="" style="line;strokeWidth=1;fillColor=none;align=left;verticalAlign=middle;spacingTop=-1;spacingLeft=3;spacingRight=3;rotatable=0;labelPosition=right;points=[];portConstraint=eastwest;strokeColor=inherit;" vertex="1" parent="J_4AB-iZqQTBYVZot05w-65">
          <mxGeometry y="26" width="320" height="8" as="geometry" />
        </mxCell>
        <mxCell id="J_4AB-iZqQTBYVZot05w-67" value="+ logValidOrder(OrderMessage): void&lt;div&gt;- logInvalidOrder(OrderMessage, InvalidOrderMessageException): void&lt;/div&gt;" style="text;strokeColor=none;fillColor=none;align=left;verticalAlign=top;spacingLeft=4;spacingRight=4;overflow=hidden;rotatable=0;points=[[0,0.5],[1,0.5]];portConstraint=eastwest;whiteSpace=wrap;html=1;" vertex="1" parent="J_4AB-iZqQTBYVZot05w-65">
          <mxGeometry y="34" width="320" height="72" as="geometry" />
        </mxCell>
        <mxCell id="J_4AB-iZqQTBYVZot05w-68" value="Use" style="endArrow=open;endSize=12;dashed=1;html=1;rounded=0;exitX=0.865;exitY=1.013;exitDx=0;exitDy=0;exitPerimeter=0;entryX=0.5;entryY=0;entryDx=0;entryDy=0;" edge="1" parent="1" source="J_4AB-iZqQTBYVZot05w-26" target="J_4AB-iZqQTBYVZot05w-65">
          <mxGeometry width="160" relative="1" as="geometry">
            <mxPoint x="900" y="265" as="sourcePoint" />
            <mxPoint x="902" y="323" as="targetPoint" />
            <Array as="points">
              <mxPoint x="1270" y="245" />
              <mxPoint x="1430" y="245" />
            </Array>
          </mxGeometry>
        </mxCell>
        <mxCell id="J_4AB-iZqQTBYVZot05w-69" value="InvalidOrderLog" style="swimlane;fontStyle=0;childLayout=stackLayout;horizontal=1;startSize=26;fillColor=none;horizontalStack=0;resizeParent=1;resizeParentMax=0;resizeLast=0;collapsible=1;marginBottom=0;whiteSpace=wrap;html=1;" vertex="1" parent="1">
          <mxGeometry x="1340" y="705" width="180" height="100" as="geometry" />
        </mxCell>
        <mxCell id="J_4AB-iZqQTBYVZot05w-70" value="+ order: OrderMessage&amp;nbsp;&lt;div&gt;+ message: String&amp;nbsp;&lt;/div&gt;&lt;div&gt;+ errorName: String&lt;/div&gt;&lt;div&gt;+ timestamp:&amp;nbsp;&lt;span style=&quot;background-color: transparent; color: light-dark(rgb(0, 0, 0), rgb(255, 255, 255));&quot;&gt;Instant&lt;/span&gt;&lt;/div&gt;" style="text;strokeColor=none;fillColor=none;align=left;verticalAlign=top;spacingLeft=4;spacingRight=4;overflow=hidden;rotatable=0;points=[[0,0.5],[1,0.5]];portConstraint=eastwest;whiteSpace=wrap;html=1;" vertex="1" parent="J_4AB-iZqQTBYVZot05w-69">
          <mxGeometry y="26" width="180" height="74" as="geometry" />
        </mxCell>
        <mxCell id="J_4AB-iZqQTBYVZot05w-71" value="" style="endArrow=none;html=1;rounded=0;entryX=0.5;entryY=0;entryDx=0;entryDy=0;" edge="1" parent="1" source="J_4AB-iZqQTBYVZot05w-67" target="J_4AB-iZqQTBYVZot05w-69">
          <mxGeometry width="50" height="50" relative="1" as="geometry">
            <mxPoint x="1820" y="301" as="sourcePoint" />
            <mxPoint x="1975" y="299" as="targetPoint" />
          </mxGeometry>
        </mxCell>
        <mxCell id="J_4AB-iZqQTBYVZot05w-72" value="FailedOrdersProcessor" style="swimlane;fontStyle=1;align=center;verticalAlign=top;childLayout=stackLayout;horizontal=1;startSize=26;horizontalStack=0;resizeParent=1;resizeParentMax=0;resizeLast=0;collapsible=1;marginBottom=0;whiteSpace=wrap;html=1;" vertex="1" parent="1">
          <mxGeometry x="290" y="-200" width="280" height="140" as="geometry" />
        </mxCell>
        <mxCell id="J_4AB-iZqQTBYVZot05w-102" value="- rabbitTemplate: RabbitTemplate" style="text;strokeColor=none;fillColor=none;align=left;verticalAlign=top;spacingLeft=4;spacingRight=4;overflow=hidden;rotatable=0;points=[[0,0.5],[1,0.5]];portConstraint=eastwest;whiteSpace=wrap;html=1;" vertex="1" parent="J_4AB-iZqQTBYVZot05w-72">
          <mxGeometry y="26" width="280" height="26" as="geometry" />
        </mxCell>
        <mxCell id="J_4AB-iZqQTBYVZot05w-73" value="" style="line;strokeWidth=1;fillColor=none;align=left;verticalAlign=middle;spacingTop=-1;spacingLeft=3;spacingRight=3;rotatable=0;labelPosition=right;points=[];portConstraint=eastwest;strokeColor=inherit;" vertex="1" parent="J_4AB-iZqQTBYVZot05w-72">
          <mxGeometry y="52" width="280" height="34" as="geometry" />
        </mxCell>
        <mxCell id="J_4AB-iZqQTBYVZot05w-74" value="&lt;div&gt;+ handleError(OrderMessage, Exception)&lt;/div&gt;" style="text;strokeColor=none;fillColor=none;align=left;verticalAlign=top;spacingLeft=4;spacingRight=4;overflow=hidden;rotatable=0;points=[[0,0.5],[1,0.5]];portConstraint=eastwest;whiteSpace=wrap;html=1;" vertex="1" parent="J_4AB-iZqQTBYVZot05w-72">
          <mxGeometry y="86" width="280" height="54" as="geometry" />
        </mxCell>
        <mxCell id="J_4AB-iZqQTBYVZot05w-75" value="Use" style="endArrow=open;endSize=12;dashed=1;html=1;rounded=0;exitX=0.5;exitY=0;exitDx=0;exitDy=0;entryX=0.485;entryY=1.014;entryDx=0;entryDy=0;entryPerimeter=0;" edge="1" parent="1" source="J_4AB-iZqQTBYVZot05w-23" target="J_4AB-iZqQTBYVZot05w-74">
          <mxGeometry width="160" relative="1" as="geometry">
            <mxPoint x="1000" y="325" as="sourcePoint" />
            <mxPoint x="730" y="-15" as="targetPoint" />
            <Array as="points">
              <mxPoint x="910" y="-15" />
              <mxPoint x="500" y="-15" />
            </Array>
          </mxGeometry>
        </mxCell>
        <mxCell id="J_4AB-iZqQTBYVZot05w-76" value="&lt;p style=&quot;margin:0px;margin-top:4px;text-align:center;&quot;&gt;&lt;i&gt;&amp;lt;&amp;lt;Interface&amp;gt;&amp;gt;&lt;/i&gt;&lt;/p&gt;&lt;p style=&quot;margin:0px;margin-top:4px;text-align:center;&quot;&gt;&lt;i&gt;&lt;b&gt;IRepository&lt;/b&gt;&lt;/i&gt;&lt;/p&gt;&lt;hr size=&quot;1&quot; style=&quot;border-style:solid;&quot;&gt;&lt;p style=&quot;margin:0px;margin-left:4px;&quot;&gt;+ savePurchasedItems(List&amp;lt;PurchasedItemsEntity&amp;gt; purchasedItemsEntity): void&lt;br&gt;+ saveOrder(OrderEntity): void&lt;/p&gt;&lt;p style=&quot;margin:0px;margin-left:4px;&quot;&gt;+ findByOrderId(Long): Optional&amp;lt;OrderEntity&amp;gt;&lt;/p&gt;&lt;p style=&quot;margin:0px;margin-left:4px;&quot;&gt;+ getNumberOfOrdersByCustomer(Long): int&lt;/p&gt;&lt;p style=&quot;margin:0px;margin-left:4px;&quot;&gt;+ getAllOrdersByCustomerId(Long): List&amp;lt;OrderEntity&amp;gt;&lt;/p&gt;" style="verticalAlign=top;align=left;overflow=fill;html=1;whiteSpace=wrap;" vertex="1" parent="1">
          <mxGeometry x="1897" y="40" width="330" height="212" as="geometry" />
        </mxCell>
        <mxCell id="J_4AB-iZqQTBYVZot05w-77" value="ReportStrategyFactory" style="swimlane;fontStyle=1;align=center;verticalAlign=top;childLayout=stackLayout;horizontal=1;startSize=26;horizontalStack=0;resizeParent=1;resizeParentMax=0;resizeLast=0;collapsible=1;marginBottom=0;whiteSpace=wrap;html=1;" vertex="1" parent="1">
          <mxGeometry x="2370" y="-474" width="330" height="120" as="geometry" />
        </mxCell>
        <mxCell id="J_4AB-iZqQTBYVZot05w-78" value="+htmlStrategy:&amp;nbsp;&lt;span style=&quot;color: light-dark(rgb(0, 0, 0), rgb(255, 255, 255)); text-align: center; background-color: transparent;&quot;&gt;ReportGeneratorHtml&lt;/span&gt;&lt;span style=&quot;text-align: center;&quot;&gt;Impl&lt;/span&gt;&lt;div&gt;&lt;span style=&quot;text-align: center;&quot;&gt;+json&lt;/span&gt;&lt;span style=&quot;background-color: initial;&quot;&gt;Strategy:&amp;nbsp;&lt;/span&gt;&lt;span style=&quot;background-color: transparent; color: light-dark(rgb(0, 0, 0), rgb(255, 255, 255)); text-align: center;&quot;&gt;ReportGeneratorJ&lt;/span&gt;&lt;span style=&quot;text-align: center; background-color: initial;&quot;&gt;son&lt;/span&gt;&lt;span style=&quot;background-color: initial; text-align: center;&quot;&gt;Impl&lt;/span&gt;&lt;/div&gt;" style="text;strokeColor=none;fillColor=none;align=left;verticalAlign=top;spacingLeft=4;spacingRight=4;overflow=hidden;rotatable=0;points=[[0,0.5],[1,0.5]];portConstraint=eastwest;whiteSpace=wrap;html=1;" vertex="1" parent="J_4AB-iZqQTBYVZot05w-77">
          <mxGeometry y="26" width="330" height="44" as="geometry" />
        </mxCell>
        <mxCell id="J_4AB-iZqQTBYVZot05w-79" value="" style="line;strokeWidth=1;fillColor=none;align=left;verticalAlign=middle;spacingTop=-1;spacingLeft=3;spacingRight=3;rotatable=0;labelPosition=right;points=[];portConstraint=eastwest;strokeColor=inherit;" vertex="1" parent="J_4AB-iZqQTBYVZot05w-77">
          <mxGeometry y="70" width="330" height="8" as="geometry" />
        </mxCell>
        <mxCell id="J_4AB-iZqQTBYVZot05w-80" value="+ getStrategy(EReportFormat):&amp;nbsp;&lt;span style=&quot;text-align: center;&quot;&gt;I&lt;/span&gt;&lt;span style=&quot;color: light-dark(rgb(0, 0, 0), rgb(255, 255, 255)); text-align: center; background-color: transparent;&quot;&gt;ReportGenerator&lt;/span&gt;&lt;span style=&quot;color: light-dark(rgb(0, 0, 0), rgb(255, 255, 255)); text-align: center; background-color: transparent;&quot;&gt;Strategy&lt;/span&gt;&lt;div&gt;&lt;b style=&quot;color: light-dark(rgb(0, 0, 0), rgb(255, 255, 255)); text-align: center; background-color: transparent;&quot;&gt;&lt;br&gt;&lt;/b&gt;&lt;/div&gt;" style="text;strokeColor=none;fillColor=none;align=left;verticalAlign=top;spacingLeft=4;spacingRight=4;overflow=hidden;rotatable=0;points=[[0,0.5],[1,0.5]];portConstraint=eastwest;whiteSpace=wrap;html=1;" vertex="1" parent="J_4AB-iZqQTBYVZot05w-77">
          <mxGeometry y="78" width="330" height="42" as="geometry" />
        </mxCell>
        <mxCell id="J_4AB-iZqQTBYVZot05w-81" value="Use" style="endArrow=open;endSize=12;dashed=1;html=1;rounded=0;exitX=1;exitY=0.025;exitDx=0;exitDy=0;entryX=0.008;entryY=0.281;entryDx=0;entryDy=0;entryPerimeter=0;exitPerimeter=0;" edge="1" parent="1" source="J_4AB-iZqQTBYVZot05w-10" target="J_4AB-iZqQTBYVZot05w-79">
          <mxGeometry width="160" relative="1" as="geometry">
            <mxPoint x="2013" y="-278" as="sourcePoint" />
            <mxPoint x="2012" y="-56" as="targetPoint" />
          </mxGeometry>
        </mxCell>
        <mxCell id="J_4AB-iZqQTBYVZot05w-82" value="&lt;span style=&quot;text-align: left;&quot;&gt;EReportFormat&lt;/span&gt;" style="swimlane;fontStyle=0;childLayout=stackLayout;horizontal=1;startSize=26;fillColor=none;horizontalStack=0;resizeParent=1;resizeParentMax=0;resizeLast=0;collapsible=1;marginBottom=0;whiteSpace=wrap;html=1;" vertex="1" parent="1">
          <mxGeometry x="2455" y="-620" width="160" height="80" as="geometry" />
        </mxCell>
        <mxCell id="J_4AB-iZqQTBYVZot05w-83" value="JSON&lt;div&gt;HTML&lt;/div&gt;" style="text;strokeColor=none;fillColor=none;align=left;verticalAlign=top;spacingLeft=4;spacingRight=4;overflow=hidden;rotatable=0;points=[[0,0.5],[1,0.5]];portConstraint=eastwest;whiteSpace=wrap;html=1;" vertex="1" parent="J_4AB-iZqQTBYVZot05w-82">
          <mxGeometry y="26" width="160" height="54" as="geometry" />
        </mxCell>
        <mxCell id="J_4AB-iZqQTBYVZot05w-84" value="ReportInformation" style="swimlane;fontStyle=0;childLayout=stackLayout;horizontal=1;startSize=26;fillColor=none;horizontalStack=0;resizeParent=1;resizeParentMax=0;resizeLast=0;collapsible=1;marginBottom=0;whiteSpace=wrap;html=1;" vertex="1" parent="1">
          <mxGeometry x="1990" y="-800" width="210" height="100" as="geometry" />
        </mxCell>
        <mxCell id="J_4AB-iZqQTBYVZot05w-85" value="+ numberOfOrders: int&lt;div&gt;+ orders: List&amp;lt;OrderResponse&amp;gt;&lt;/div&gt;&lt;div&gt;+ totalValueSpent: BigDecimal&lt;/div&gt;" style="text;strokeColor=none;fillColor=none;align=left;verticalAlign=top;spacingLeft=4;spacingRight=4;overflow=hidden;rotatable=0;points=[[0,0.5],[1,0.5]];portConstraint=eastwest;whiteSpace=wrap;html=1;" vertex="1" parent="J_4AB-iZqQTBYVZot05w-84">
          <mxGeometry y="26" width="210" height="74" as="geometry" />
        </mxCell>
        <mxCell id="J_4AB-iZqQTBYVZot05w-86" value="Use" style="endArrow=open;endSize=12;dashed=1;html=1;rounded=0;exitX=1;exitY=0.5;exitDx=0;exitDy=0;entryX=0;entryY=0.5;entryDx=0;entryDy=0;" edge="1" parent="1" source="J_4AB-iZqQTBYVZot05w-78" target="J_4AB-iZqQTBYVZot05w-12">
          <mxGeometry width="160" relative="1" as="geometry">
            <mxPoint x="2210" y="-394" as="sourcePoint" />
            <mxPoint x="2383" y="-392" as="targetPoint" />
          </mxGeometry>
        </mxCell>
        <mxCell id="J_4AB-iZqQTBYVZot05w-87" value="Use" style="endArrow=open;endSize=12;dashed=1;html=1;rounded=0;exitX=1;exitY=0.5;exitDx=0;exitDy=0;entryX=0;entryY=0.5;entryDx=0;entryDy=0;" edge="1" parent="1" source="J_4AB-iZqQTBYVZot05w-78" target="J_4AB-iZqQTBYVZot05w-49">
          <mxGeometry width="160" relative="1" as="geometry">
            <mxPoint x="2710" y="-416" as="sourcePoint" />
            <mxPoint x="2880" y="-526" as="targetPoint" />
          </mxGeometry>
        </mxCell>
        <mxCell id="J_4AB-iZqQTBYVZot05w-88" value="" style="endArrow=none;html=1;rounded=0;exitX=0.5;exitY=0;exitDx=0;exitDy=0;entryX=0.499;entryY=0.985;entryDx=0;entryDy=0;entryPerimeter=0;" edge="1" parent="1" source="J_4AB-iZqQTBYVZot05w-77" target="J_4AB-iZqQTBYVZot05w-83">
          <mxGeometry width="50" height="50" relative="1" as="geometry">
            <mxPoint x="2210" y="-275" as="sourcePoint" />
            <mxPoint x="2540" y="-640" as="targetPoint" />
          </mxGeometry>
        </mxCell>
        <mxCell id="J_4AB-iZqQTBYVZot05w-89" value="&amp;lt;&amp;lt;creates&amp;gt;&amp;gt;" style="endArrow=open;html=1;rounded=0;align=center;verticalAlign=bottom;dashed=1;endFill=0;labelBackgroundColor=none;exitX=0.75;exitY=0;exitDx=0;exitDy=0;entryX=0.515;entryY=0.97;entryDx=0;entryDy=0;entryPerimeter=0;" edge="1" parent="1" source="J_4AB-iZqQTBYVZot05w-7" target="J_4AB-iZqQTBYVZot05w-85">
          <mxGeometry relative="1" as="geometry">
            <mxPoint x="1995" y="-475" as="sourcePoint" />
            <mxPoint x="2190" y="-590" as="targetPoint" />
          </mxGeometry>
        </mxCell>
        <mxCell id="J_4AB-iZqQTBYVZot05w-90" value="" style="resizable=0;html=1;align=center;verticalAlign=top;labelBackgroundColor=none;" connectable="0" vertex="1" parent="J_4AB-iZqQTBYVZot05w-89">
          <mxGeometry relative="1" as="geometry" />
        </mxCell>
        <mxCell id="J_4AB-iZqQTBYVZot05w-91" value="" style="endArrow=none;html=1;rounded=0;entryX=0;entryY=0.5;entryDx=0;entryDy=0;exitX=1;exitY=0.5;exitDx=0;exitDy=0;" edge="1" parent="1" source="J_4AB-iZqQTBYVZot05w-85" target="J_4AB-iZqQTBYVZot05w-15">
          <mxGeometry width="50" height="50" relative="1" as="geometry">
            <mxPoint x="2730" y="-720" as="sourcePoint" />
            <mxPoint x="2780" y="-770" as="targetPoint" />
          </mxGeometry>
        </mxCell>
        <mxCell id="J_4AB-iZqQTBYVZot05w-92" value="&lt;span style=&quot;text-align: left;&quot;&gt;PurchasedItemsResponse&lt;/span&gt;" style="swimlane;fontStyle=0;childLayout=stackLayout;horizontal=1;startSize=26;fillColor=none;horizontalStack=0;resizeParent=1;resizeParentMax=0;resizeLast=0;collapsible=1;marginBottom=0;whiteSpace=wrap;html=1;" vertex="1" parent="1">
          <mxGeometry x="1710" y="-890" width="230" height="100" as="geometry" />
        </mxCell>
        <mxCell id="J_4AB-iZqQTBYVZot05w-93" value="&lt;div&gt;+ productName: String&lt;/div&gt;&lt;div&gt;+ quanitty: int&lt;/div&gt;&lt;div&gt;+ price: BigDecimal&lt;/div&gt;" style="text;strokeColor=none;fillColor=none;align=left;verticalAlign=top;spacingLeft=4;spacingRight=4;overflow=hidden;rotatable=0;points=[[0,0.5],[1,0.5]];portConstraint=eastwest;whiteSpace=wrap;html=1;" vertex="1" parent="J_4AB-iZqQTBYVZot05w-92">
          <mxGeometry y="26" width="230" height="74" as="geometry" />
        </mxCell>
        <mxCell id="J_4AB-iZqQTBYVZot05w-94" value="n" style="endArrow=open;html=1;endSize=12;startArrow=diamondThin;startSize=14;startFill=1;edgeStyle=orthogonalEdgeStyle;align=left;verticalAlign=bottom;rounded=0;entryX=0.538;entryY=0.991;entryDx=0;entryDy=0;exitX=0.5;exitY=0;exitDx=0;exitDy=0;entryPerimeter=0;" edge="1" parent="1" source="J_4AB-iZqQTBYVZot05w-45" target="J_4AB-iZqQTBYVZot05w-93">
          <mxGeometry relative="1" as="geometry">
            <mxPoint x="1765" y="-740" as="sourcePoint" />
            <mxPoint x="1680" y="-790" as="targetPoint" />
          </mxGeometry>
        </mxCell>
        <mxCell id="J_4AB-iZqQTBYVZot05w-95" value="&lt;p style=&quot;margin:0px;margin-top:4px;text-align:center;&quot;&gt;&lt;i&gt;&amp;lt;&amp;lt;Interface&amp;gt;&amp;gt;&lt;/i&gt;&lt;/p&gt;&lt;p style=&quot;margin:0px;margin-top:4px;text-align:center;&quot;&gt;&lt;i&gt;&lt;b&gt;OrderRepositoryJpa&lt;/b&gt;&lt;/i&gt;&lt;/p&gt;&lt;hr size=&quot;1&quot; style=&quot;border-style:solid;&quot;&gt;&lt;p style=&quot;margin:0px;margin-left:4px;&quot;&gt;&lt;span style=&quot;background-color: initial;&quot;&gt;+ findAllByCustomerId (Long): List&amp;lt;OrderEntity&amp;gt;&lt;/span&gt;&lt;br&gt;&lt;/p&gt;&lt;p style=&quot;margin:0px;margin-left:4px;&quot;&gt;&lt;span style=&quot;background-color: initial;&quot;&gt;+ countByCustomerId(Long): int&lt;/span&gt;&lt;/p&gt;" style="verticalAlign=top;align=left;overflow=fill;html=1;whiteSpace=wrap;" vertex="1" parent="1">
          <mxGeometry x="1810" y="568" width="330" height="110" as="geometry" />
        </mxCell>
        <mxCell id="J_4AB-iZqQTBYVZot05w-96" value="Use" style="endArrow=open;endSize=12;dashed=1;html=1;rounded=0;exitX=0.25;exitY=1;exitDx=0;exitDy=0;entryX=0.5;entryY=0;entryDx=0;entryDy=0;" edge="1" parent="1" source="J_4AB-iZqQTBYVZot05w-31" target="J_4AB-iZqQTBYVZot05w-95">
          <mxGeometry width="160" relative="1" as="geometry">
            <mxPoint x="1242" y="247" as="sourcePoint" />
            <mxPoint x="1660" y="508" as="targetPoint" />
          </mxGeometry>
        </mxCell>
        <mxCell id="J_4AB-iZqQTBYVZot05w-97" value="&lt;p style=&quot;margin:0px;margin-top:4px;text-align:center;&quot;&gt;&lt;i&gt;&amp;lt;&amp;lt;Interface&amp;gt;&amp;gt;&lt;/i&gt;&lt;/p&gt;&lt;p style=&quot;margin:0px;margin-top:4px;text-align:center;&quot;&gt;&lt;b&gt;&lt;i&gt;PurchasedItemsRepositoryJpa&lt;/i&gt;&lt;/b&gt;&lt;br&gt;&lt;/p&gt;&lt;hr size=&quot;1&quot; style=&quot;border-style:solid;&quot;&gt;&lt;p style=&quot;margin:0px;margin-left:4px;&quot;&gt;&lt;br&gt;&lt;/p&gt;" style="verticalAlign=top;align=left;overflow=fill;html=1;whiteSpace=wrap;" vertex="1" parent="1">
          <mxGeometry x="2170" y="578" width="330" height="68" as="geometry" />
        </mxCell>
        <mxCell id="J_4AB-iZqQTBYVZot05w-98" value="Use" style="endArrow=open;endSize=12;dashed=1;html=1;rounded=0;exitX=0.737;exitY=0.292;exitDx=0;exitDy=0;entryX=0.5;entryY=0;entryDx=0;entryDy=0;exitPerimeter=0;" edge="1" parent="1" source="J_4AB-iZqQTBYVZot05w-33" target="J_4AB-iZqQTBYVZot05w-97">
          <mxGeometry width="160" relative="1" as="geometry">
            <mxPoint x="1982" y="462" as="sourcePoint" />
            <mxPoint x="2015" y="576" as="targetPoint" />
            <Array as="points">
              <mxPoint x="2150" y="516" />
              <mxPoint x="2335" y="516" />
            </Array>
          </mxGeometry>
        </mxCell>
        <mxCell id="J_4AB-iZqQTBYVZot05w-99" value="DLQ" style="strokeWidth=2;html=1;shape=mxgraph.flowchart.direct_data;whiteSpace=wrap;" vertex="1" parent="1">
          <mxGeometry x="-220" y="-190" width="180" height="120" as="geometry" />
        </mxCell>
        <mxCell id="J_4AB-iZqQTBYVZot05w-100" value="dispatch" style="html=1;verticalAlign=bottom;endArrow=block;curved=0;rounded=0;exitX=0;exitY=0.5;exitDx=0;exitDy=0;entryX=1;entryY=0.5;entryDx=0;entryDy=0;entryPerimeter=0;" edge="1" parent="1" source="J_4AB-iZqQTBYVZot05w-72" target="J_4AB-iZqQTBYVZot05w-99">
          <mxGeometry width="80" relative="1" as="geometry">
            <mxPoint x="-40" y="173" as="sourcePoint" />
            <mxPoint x="156" y="171" as="targetPoint" />
          </mxGeometry>
        </mxCell>
      </root>
    </mxGraphModel>
  </diagram>
</mxfile>
